<svg width="216" height="331" viewBox="0 0 216 331" fill="none" xmlns="http://www.w3.org/2000/svg">
<mask id="path-1-outside-1_54_2" maskUnits="userSpaceOnUse" x="-48.5295" y="-10.853" width="319.72" height="359.641" fill="black">
<rect fill="white" x="-48.5295" y="-10.853" width="319.72" height="359.641"/>
<path d="M111.821 321.26C100.414 323.71 87.9711 324.507 74.491 323.652C61.4068 323.053 49.1362 319.892 37.6793 314.171C26.5482 308.379 17.9533 299.315 11.8944 286.979C11.2185 285.42 10.5076 283.697 9.76176 281.812C9.34178 279.856 8.9218 277.901 8.50182 275.945C6.33193 265.842 6.51335 255.575 9.04607 245.144C11.5788 234.713 15.5792 226.354 21.0473 220.065L21.5361 219.96C22.1879 219.82 23.1777 220.46 24.5054 221.879C26.0889 222.903 26.2989 223.881 25.1353 224.812C22.5763 228.771 20.937 233.044 20.2174 237.631C19.7538 241.822 20.0119 246.199 20.9919 250.761C22.3218 256.953 24.6644 263.098 28.0198 269.196C31.631 274.899 35.5561 279.681 39.7951 283.544C50.3925 293.2 63.596 299.911 79.4056 303.675C95.471 307.043 110.511 307.222 124.524 304.212C143.753 300.082 157.356 291.194 165.335 277.548C173.64 263.831 176.008 248.663 172.438 232.042C170.268 221.939 166.143 212.256 160.062 202.993C151.838 190.099 141.891 177.916 130.222 166.444C118.808 154.576 108.117 142.894 98.1472 131.398C89.4352 120.995 83.7843 109.765 81.1944 97.7067C78.4645 84.9966 79.7505 71.9353 85.0522 58.5229C90.634 46.4142 99.115 35.8988 110.495 26.9768C122.131 17.6589 134.63 11.5651 147.992 8.69523C157.118 6.73533 166.267 6.47493 175.44 7.91404C184.614 9.35314 193.427 13.0856 201.881 19.1114C204.466 21.6245 206.249 25.1624 207.229 29.725C208.629 36.2431 208.41 41.5745 206.573 45.7194C204.55 50.5861 202.481 56.8264 200.366 64.4403C198.251 72.0541 197.147 77.2347 197.056 79.9819C196.474 80.4478 194.984 81.4496 192.587 82.9872C190.446 84.129 188.944 84.2811 188.082 83.4433C188.826 80.5562 189.604 75.4456 190.415 68.1117C191.226 60.7778 191.037 54.3407 189.847 48.8004C189.077 45.2155 188.074 41.3396 186.838 37.1729C185.858 32.6103 182.9 29.1545 177.963 26.8054C173.283 24.0604 167.566 22.0493 160.814 20.772C154.062 19.4948 146.286 19.8011 137.487 21.691C119.562 25.5408 106.995 33.6951 99.7833 46.1538C92.572 58.6125 90.2964 71.034 92.9562 83.4183C94.2861 89.6104 96.9197 95.5225 100.857 101.155C108.265 111.837 117.489 121.448 128.528 129.987C139.567 138.526 150.514 147.426 161.367 156.686C172.476 165.551 181.84 175.814 189.458 187.474C194.537 195.247 198.022 203.534 199.912 212.333C202.642 225.043 201.867 237.313 197.589 249.141C193.637 260.9 187.123 271.845 178.049 281.977C169.23 291.713 159.083 300.029 147.609 306.925C136.135 313.822 124.205 318.6 111.821 321.26Z"/>
</mask>
<path d="M111.821 321.26C100.414 323.71 87.9711 324.507 74.491 323.652C61.4068 323.053 49.1362 319.892 37.6793 314.171C26.5482 308.379 17.9533 299.315 11.8944 286.979C11.2185 285.42 10.5076 283.697 9.76176 281.812C9.34178 279.856 8.9218 277.901 8.50182 275.945C6.33193 265.842 6.51335 255.575 9.04607 245.144C11.5788 234.713 15.5792 226.354 21.0473 220.065L21.5361 219.96C22.1879 219.82 23.1777 220.46 24.5054 221.879C26.0889 222.903 26.2989 223.881 25.1353 224.812C22.5763 228.771 20.937 233.044 20.2174 237.631C19.7538 241.822 20.0119 246.199 20.9919 250.761C22.3218 256.953 24.6644 263.098 28.0198 269.196C31.631 274.899 35.5561 279.681 39.7951 283.544C50.3925 293.2 63.596 299.911 79.4056 303.675C95.471 307.043 110.511 307.222 124.524 304.212C143.753 300.082 157.356 291.194 165.335 277.548C173.64 263.831 176.008 248.663 172.438 232.042C170.268 221.939 166.143 212.256 160.062 202.993C151.838 190.099 141.891 177.916 130.222 166.444C118.808 154.576 108.117 142.894 98.1472 131.398C89.4352 120.995 83.7843 109.765 81.1944 97.7067C78.4645 84.9966 79.7505 71.9353 85.0522 58.5229C90.634 46.4142 99.115 35.8988 110.495 26.9768C122.131 17.6589 134.63 11.5651 147.992 8.69523C157.118 6.73533 166.267 6.47493 175.44 7.91404C184.614 9.35314 193.427 13.0856 201.881 19.1114C204.466 21.6245 206.249 25.1624 207.229 29.725C208.629 36.2431 208.41 41.5745 206.573 45.7194C204.55 50.5861 202.481 56.8264 200.366 64.4403C198.251 72.0541 197.147 77.2347 197.056 79.9819C196.474 80.4478 194.984 81.4496 192.587 82.9872C190.446 84.129 188.944 84.2811 188.082 83.4433C188.826 80.5562 189.604 75.4456 190.415 68.1117C191.226 60.7778 191.037 54.3407 189.847 48.8004C189.077 45.2155 188.074 41.3396 186.838 37.1729C185.858 32.6103 182.9 29.1545 177.963 26.8054C173.283 24.0604 167.566 22.0493 160.814 20.772C154.062 19.4948 146.286 19.8011 137.487 21.691C119.562 25.5408 106.995 33.6951 99.7833 46.1538C92.572 58.6125 90.2964 71.034 92.9562 83.4183C94.2861 89.6104 96.9197 95.5225 100.857 101.155C108.265 111.837 117.489 121.448 128.528 129.987C139.567 138.526 150.514 147.426 161.367 156.686C172.476 165.551 181.84 175.814 189.458 187.474C194.537 195.247 198.022 203.534 199.912 212.333C202.642 225.043 201.867 237.313 197.589 249.141C193.637 260.9 187.123 271.845 178.049 281.977C169.23 291.713 159.083 300.029 147.609 306.925C136.135 313.822 124.205 318.6 111.821 321.26Z" fill="#F7D570"/>
<path d="M74.491 323.652L74.9341 316.666L74.8727 316.662L74.8112 316.659L74.491 323.652ZM37.6793 314.171L34.4482 320.38L34.4998 320.407L34.5517 320.433L37.6793 314.171ZM11.8944 286.979L5.47166 289.763L5.53789 289.915L5.61133 290.065L11.8944 286.979ZM9.76176 281.812L2.91783 283.282L3.03948 283.848L3.2526 284.387L9.76176 281.812ZM21.0473 220.065L19.5773 213.221L17.296 213.711L15.765 215.472L21.0473 220.065ZM24.5054 221.879L19.393 226.661L19.9817 227.29L20.7054 227.758L24.5054 221.879ZM25.1353 224.812L20.7599 219.348L19.8732 220.059L19.2565 221.013L25.1353 224.812ZM20.2174 237.631L13.302 236.546L13.2774 236.703L13.2599 236.861L20.2174 237.631ZM28.0198 269.196L21.8869 272.571L21.9907 272.76L22.106 272.942L28.0198 269.196ZM39.7951 283.544L35.0803 288.718L35.0803 288.718L39.7951 283.544ZM79.4056 303.675L77.7843 310.484L77.8764 310.506L77.9692 310.526L79.4056 303.675ZM165.335 277.548L159.347 273.922L159.319 273.968L159.292 274.015L165.335 277.548ZM160.062 202.993L154.16 206.757L154.185 206.796L154.21 206.834L160.062 202.993ZM130.222 166.444L125.176 171.296L125.244 171.367L125.314 171.436L130.222 166.444ZM98.1472 131.398L92.7806 135.892L92.8193 135.939L92.8588 135.984L98.1472 131.398ZM85.0522 58.5229L78.6951 55.5925L78.6138 55.769L78.5424 55.9497L85.0522 58.5229ZM110.495 26.9768L114.814 32.4857L114.842 32.4634L114.871 32.4409L110.495 26.9768ZM201.881 19.1114L206.76 14.092L206.378 13.7206L205.944 13.4112L201.881 19.1114ZM206.573 45.7194L200.174 42.8828L200.141 42.9572L200.109 43.0323L206.573 45.7194ZM200.366 64.4403L207.111 66.3138L207.111 66.3138L200.366 64.4403ZM197.056 79.9819L201.431 85.4459L203.944 83.4335L204.052 80.2158L197.056 79.9819ZM192.587 82.9872L195.881 89.164L196.129 89.0314L196.367 88.8793L192.587 82.9872ZM188.082 83.4433L181.304 81.6974L180.29 85.6313L183.203 88.4627L188.082 83.4433ZM190.415 68.1117L183.457 67.3419L183.457 67.3419L190.415 68.1117ZM186.838 37.1729L179.994 38.6428L180.051 38.9057L180.127 39.1634L186.838 37.1729ZM177.963 26.8054L174.422 32.8437L174.683 32.9965L174.956 33.1263L177.963 26.8054ZM160.814 20.772L162.115 13.894L162.115 13.894L160.814 20.772ZM99.7833 46.1538L105.842 49.6604L105.842 49.6604L99.7833 46.1538ZM100.857 101.155L106.609 97.1655L106.602 97.1548L106.594 97.1441L100.857 101.155ZM128.528 129.987L124.245 135.524L124.245 135.524L128.528 129.987ZM161.367 156.686L156.823 162.011L156.911 162.086L157.001 162.158L161.367 156.686ZM189.458 187.474L183.598 191.303L183.598 191.303L189.458 187.474ZM197.589 249.141L191.007 246.761L190.979 246.836L190.954 246.911L197.589 249.141ZM178.049 281.977L183.237 286.676L183.25 286.662L183.263 286.647L178.049 281.977ZM147.609 306.925L151.215 312.925L151.215 312.925L147.609 306.925ZM111.821 321.26L110.351 314.416C99.6624 316.712 87.8716 317.487 74.9341 316.666L74.491 323.652L74.0479 330.638C88.0706 331.528 101.166 330.708 113.291 328.104L111.821 321.26ZM74.491 323.652L74.8112 316.659C62.6807 316.104 51.369 313.183 40.8068 307.908L37.6793 314.171L34.5517 320.433C46.9034 326.602 60.133 330.002 74.1708 330.645L74.491 323.652ZM37.6793 314.171L40.9103 307.961C31.2309 302.925 23.6443 295.024 18.1775 283.893L11.8944 286.979L5.61133 290.065C12.2622 303.606 21.8656 313.833 34.4482 320.38L37.6793 314.171ZM11.8944 286.979L18.3171 284.195C17.6762 282.717 16.9942 281.065 16.2709 279.237L9.76176 281.812L3.2526 284.387C4.02108 286.329 4.76082 288.122 5.47166 289.763L11.8944 286.979ZM9.76176 281.812L16.6057 280.342C16.6049 280.338 16.604 280.334 16.6032 280.33C16.6024 280.326 16.6016 280.323 16.6008 280.319C16.5999 280.315 16.5991 280.311 16.5983 280.307C16.5975 280.304 16.5967 280.3 16.5958 280.296C16.595 280.292 16.5942 280.288 16.5934 280.284C16.5926 280.281 16.5917 280.277 16.5909 280.273C16.5901 280.269 16.5893 280.265 16.5885 280.262C16.5876 280.258 16.5868 280.254 16.586 280.25C16.5852 280.246 16.5844 280.242 16.5835 280.239C16.5827 280.235 16.5819 280.231 16.5811 280.227C16.5803 280.223 16.5794 280.22 16.5786 280.216C16.5778 280.212 16.577 280.208 16.5762 280.204C16.5753 280.2 16.5745 280.197 16.5737 280.193C16.5729 280.189 16.5721 280.185 16.5712 280.181C16.5704 280.178 16.5696 280.174 16.5688 280.17C16.5679 280.166 16.5671 280.162 16.5663 280.158C16.5655 280.155 16.5647 280.151 16.5638 280.147C16.563 280.143 16.5622 280.139 16.5614 280.135C16.5606 280.132 16.5597 280.128 16.5589 280.124C16.5581 280.12 16.5573 280.116 16.5565 280.113C16.5556 280.109 16.5548 280.105 16.554 280.101C16.5532 280.097 16.5524 280.093 16.5515 280.09C16.5507 280.086 16.5499 280.082 16.5491 280.078C16.5483 280.074 16.5474 280.071 16.5466 280.067C16.5458 280.063 16.545 280.059 16.5442 280.055C16.5433 280.051 16.5425 280.048 16.5417 280.044C16.5409 280.04 16.5401 280.036 16.5392 280.032C16.5384 280.029 16.5376 280.025 16.5368 280.021C16.536 280.017 16.5351 280.013 16.5343 280.009C16.5335 280.006 16.5327 280.002 16.5319 279.998C16.531 279.994 16.5302 279.99 16.5294 279.987C16.5286 279.983 16.5278 279.979 16.5269 279.975C16.5261 279.971 16.5253 279.967 16.5245 279.964C16.5237 279.96 16.5228 279.956 16.522 279.952C16.5212 279.948 16.5204 279.945 16.5196 279.941C16.5187 279.937 16.5179 279.933 16.5171 279.929C16.5163 279.925 16.5155 279.922 16.5146 279.918C16.5138 279.914 16.513 279.91 16.5122 279.906C16.5114 279.903 16.5105 279.899 16.5097 279.895C16.5089 279.891 16.5081 279.887 16.5072 279.883C16.5064 279.88 16.5056 279.876 16.5048 279.872C16.504 279.868 16.5031 279.864 16.5023 279.861C16.5015 279.857 16.5007 279.853 16.4999 279.849C16.499 279.845 16.4982 279.841 16.4974 279.838C16.4966 279.834 16.4958 279.83 16.4949 279.826C16.4941 279.822 16.4933 279.819 16.4925 279.815C16.4917 279.811 16.4908 279.807 16.49 279.803C16.4892 279.799 16.4884 279.796 16.4876 279.792C16.4867 279.788 16.4859 279.784 16.4851 279.78C16.4843 279.776 16.4835 279.773 16.4826 279.769C16.4818 279.765 16.481 279.761 16.4802 279.757C16.4794 279.754 16.4785 279.75 16.4777 279.746C16.4769 279.742 16.4761 279.738 16.4753 279.734C16.4744 279.731 16.4736 279.727 16.4728 279.723C16.472 279.719 16.4712 279.715 16.4703 279.712C16.4695 279.708 16.4687 279.704 16.4679 279.7C16.4671 279.696 16.4662 279.692 16.4654 279.689C16.4646 279.685 16.4638 279.681 16.463 279.677C16.4621 279.673 16.4613 279.67 16.4605 279.666C16.4597 279.662 16.4589 279.658 16.458 279.654C16.4572 279.65 16.4564 279.647 16.4556 279.643C16.4548 279.639 16.4539 279.635 16.4531 279.631C16.4523 279.628 16.4515 279.624 16.4507 279.62C16.4498 279.616 16.449 279.612 16.4482 279.608C16.4474 279.605 16.4465 279.601 16.4457 279.597C16.4449 279.593 16.4441 279.589 16.4433 279.586C16.4424 279.582 16.4416 279.578 16.4408 279.574C16.44 279.57 16.4392 279.566 16.4383 279.563C16.4375 279.559 16.4367 279.555 16.4359 279.551C16.4351 279.547 16.4342 279.544 16.4334 279.54C16.4326 279.536 16.4318 279.532 16.431 279.528C16.4301 279.524 16.4293 279.521 16.4285 279.517C16.4277 279.513 16.4269 279.509 16.426 279.505C16.4252 279.502 16.4244 279.498 16.4236 279.494C16.4228 279.49 16.4219 279.486 16.4211 279.482C16.4203 279.479 16.4195 279.475 16.4187 279.471C16.4178 279.467 16.417 279.463 16.4162 279.46C16.4154 279.456 16.4146 279.452 16.4137 279.448C16.4129 279.444 16.4121 279.44 16.4113 279.437C16.4105 279.433 16.4096 279.429 16.4088 279.425C16.408 279.421 16.4072 279.417 16.4064 279.414C16.4055 279.41 16.4047 279.406 16.4039 279.402C16.4031 279.398 16.4023 279.395 16.4014 279.391C16.4006 279.387 16.3998 279.383 16.399 279.379C16.3982 279.375 16.3973 279.372 16.3965 279.368C16.3957 279.364 16.3949 279.36 16.3941 279.356C16.3932 279.353 16.3924 279.349 16.3916 279.345C16.3908 279.341 16.39 279.337 16.3891 279.333C16.3883 279.33 16.3875 279.326 16.3867 279.322C16.3858 279.318 16.385 279.314 16.3842 279.311C16.3834 279.307 16.3826 279.303 16.3817 279.299C16.3809 279.295 16.3801 279.291 16.3793 279.288C16.3785 279.284 16.3776 279.28 16.3768 279.276C16.376 279.272 16.3752 279.269 16.3744 279.265C16.3735 279.261 16.3727 279.257 16.3719 279.253C16.3711 279.249 16.3703 279.246 16.3694 279.242C16.3686 279.238 16.3678 279.234 16.367 279.23C16.3662 279.227 16.3653 279.223 16.3645 279.219C16.3637 279.215 16.3629 279.211 16.3621 279.207C16.3612 279.204 16.3604 279.2 16.3596 279.196C16.3588 279.192 16.358 279.188 16.3571 279.185C16.3563 279.181 16.3555 279.177 16.3547 279.173C16.3539 279.169 16.353 279.165 16.3522 279.162C16.3514 279.158 16.3506 279.154 16.3498 279.15C16.3489 279.146 16.3481 279.143 16.3473 279.139C16.3465 279.135 16.3457 279.131 16.3448 279.127C16.344 279.123 16.3432 279.12 16.3424 279.116C16.3416 279.112 16.3407 279.108 16.3399 279.104C16.3391 279.101 16.3383 279.097 16.3375 279.093C16.3366 279.089 16.3358 279.085 16.335 279.081C16.3342 279.078 16.3334 279.074 16.3325 279.07C16.3317 279.066 16.3309 279.062 16.3301 279.058C16.3293 279.055 16.3284 279.051 16.3276 279.047C16.3268 279.043 16.326 279.039 16.3251 279.036C16.3243 279.032 16.3235 279.028 16.3227 279.024C16.3219 279.02 16.321 279.016 16.3202 279.013C16.3194 279.009 16.3186 279.005 16.3178 279.001C16.3169 278.997 16.3161 278.994 16.3153 278.99C16.3145 278.986 16.3137 278.982 16.3128 278.978C16.312 278.974 16.3112 278.971 16.3104 278.967C16.3096 278.963 16.3087 278.959 16.3079 278.955C16.3071 278.952 16.3063 278.948 16.3055 278.944C16.3046 278.94 16.3038 278.936 16.303 278.932C16.3022 278.929 16.3014 278.925 16.3005 278.921C16.2997 278.917 16.2989 278.913 16.2981 278.91C16.2973 278.906 16.2964 278.902 16.2956 278.898C16.2948 278.894 16.294 278.89 16.2932 278.887C16.2923 278.883 16.2915 278.879 16.2907 278.875C16.2899 278.871 16.2891 278.868 16.2882 278.864C16.2874 278.86 16.2866 278.856 16.2858 278.852C16.285 278.848 16.2841 278.845 16.2833 278.841C16.2825 278.837 16.2817 278.833 16.2809 278.829C16.28 278.826 16.2792 278.822 16.2784 278.818C16.2776 278.814 16.2768 278.81 16.2759 278.806C16.2751 278.803 16.2743 278.799 16.2735 278.795C16.2727 278.791 16.2718 278.787 16.271 278.784C16.2702 278.78 16.2694 278.776 16.2686 278.772C16.2677 278.768 16.2669 278.764 16.2661 278.761C16.2653 278.757 16.2644 278.753 16.2636 278.749C16.2628 278.745 16.262 278.742 16.2612 278.738C16.2603 278.734 16.2595 278.73 16.2587 278.726C16.2579 278.722 16.2571 278.719 16.2562 278.715C16.2554 278.711 16.2546 278.707 16.2538 278.703C16.253 278.699 16.2521 278.696 16.2513 278.692C16.2505 278.688 16.2497 278.684 16.2489 278.68C16.248 278.677 16.2472 278.673 16.2464 278.669C16.2456 278.665 16.2448 278.661 16.2439 278.657C16.2431 278.654 16.2423 278.65 16.2415 278.646C16.2407 278.642 16.2398 278.638 16.239 278.635C16.2382 278.631 16.2374 278.627 16.2366 278.623C16.2357 278.619 16.2349 278.615 16.2341 278.612C16.2333 278.608 16.2325 278.604 16.2316 278.6C16.2308 278.596 16.23 278.593 16.2292 278.589C16.2284 278.585 16.2275 278.581 16.2267 278.577C16.2259 278.573 16.2251 278.57 16.2243 278.566C16.2234 278.562 16.2226 278.558 16.2218 278.554C16.221 278.551 16.2202 278.547 16.2193 278.543C16.2185 278.539 16.2177 278.535 16.2169 278.531C16.2161 278.528 16.2152 278.524 16.2144 278.52C16.2136 278.516 16.2128 278.512 16.212 278.509C16.2111 278.505 16.2103 278.501 16.2095 278.497C16.2087 278.493 16.2078 278.489 16.207 278.486C16.2062 278.482 16.2054 278.478 16.2046 278.474C16.2037 278.47 16.2029 278.467 16.2021 278.463C16.2013 278.459 16.2005 278.455 16.1996 278.451C16.1988 278.447 16.198 278.444 16.1972 278.44C16.1964 278.436 16.1955 278.432 16.1947 278.428C16.1939 278.425 16.1931 278.421 16.1923 278.417C16.1914 278.413 16.1906 278.409 16.1898 278.405C16.189 278.402 16.1882 278.398 16.1873 278.394C16.1865 278.39 16.1857 278.386 16.1849 278.382C16.1841 278.379 16.1832 278.375 16.1824 278.371C16.1816 278.367 16.1808 278.363 16.18 278.36C16.1791 278.356 16.1783 278.352 16.1775 278.348C16.1767 278.344 16.1759 278.34 16.175 278.337C16.1742 278.333 16.1734 278.329 16.1726 278.325C16.1718 278.321 16.1709 278.318 16.1701 278.314C16.1693 278.31 16.1685 278.306 16.1677 278.302C16.1668 278.298 16.166 278.295 16.1652 278.291C16.1644 278.287 16.1636 278.283 16.1627 278.279C16.1619 278.276 16.1611 278.272 16.1603 278.268C16.1595 278.264 16.1586 278.26 16.1578 278.256C16.157 278.253 16.1562 278.249 16.1554 278.245C16.1545 278.241 16.1537 278.237 16.1529 278.234C16.1521 278.23 16.1513 278.226 16.1504 278.222C16.1496 278.218 16.1488 278.214 16.148 278.211C16.1471 278.207 16.1463 278.203 16.1455 278.199C16.1447 278.195 16.1439 278.192 16.143 278.188C16.1422 278.184 16.1414 278.18 16.1406 278.176C16.1398 278.172 16.1389 278.169 16.1381 278.165C16.1373 278.161 16.1365 278.157 16.1357 278.153C16.1348 278.15 16.134 278.146 16.1332 278.142C16.1324 278.138 16.1316 278.134 16.1307 278.13C16.1299 278.127 16.1291 278.123 16.1283 278.119C16.1275 278.115 16.1266 278.111 16.1258 278.108C16.125 278.104 16.1242 278.1 16.1234 278.096C16.1225 278.092 16.1217 278.088 16.1209 278.085C16.1201 278.081 16.1193 278.077 16.1184 278.073C16.1176 278.069 16.1168 278.066 16.116 278.062C16.1152 278.058 16.1143 278.054 16.1135 278.05C16.1127 278.046 16.1119 278.043 16.1111 278.039C16.1102 278.035 16.1094 278.031 16.1086 278.027C16.1078 278.023 16.107 278.02 16.1061 278.016C16.1053 278.012 16.1045 278.008 16.1037 278.004C16.1029 278.001 16.102 277.997 16.1012 277.993C16.1004 277.989 16.0996 277.985 16.0988 277.981C16.0979 277.978 16.0971 277.974 16.0963 277.97C16.0955 277.966 16.0947 277.962 16.0938 277.959C16.093 277.955 16.0922 277.951 16.0914 277.947C16.0906 277.943 16.0897 277.939 16.0889 277.936C16.0881 277.932 16.0873 277.928 16.0864 277.924C16.0856 277.92 16.0848 277.917 16.084 277.913C16.0832 277.909 16.0823 277.905 16.0815 277.901C16.0807 277.897 16.0799 277.894 16.0791 277.89C16.0782 277.886 16.0774 277.882 16.0766 277.878C16.0758 277.875 16.075 277.871 16.0741 277.867C16.0733 277.863 16.0725 277.859 16.0717 277.855C16.0709 277.852 16.07 277.848 16.0692 277.844C16.0684 277.84 16.0676 277.836 16.0668 277.833C16.0659 277.829 16.0651 277.825 16.0643 277.821C16.0635 277.817 16.0627 277.813 16.0618 277.81C16.061 277.806 16.0602 277.802 16.0594 277.798C16.0586 277.794 16.0577 277.791 16.0569 277.787C16.0561 277.783 16.0553 277.779 16.0545 277.775C16.0536 277.771 16.0528 277.768 16.052 277.764C16.0512 277.76 16.0504 277.756 16.0495 277.752C16.0487 277.749 16.0479 277.745 16.0471 277.741C16.0463 277.737 16.0454 277.733 16.0446 277.729C16.0438 277.726 16.043 277.722 16.0422 277.718C16.0413 277.714 16.0405 277.71 16.0397 277.707C16.0389 277.703 16.0381 277.699 16.0372 277.695C16.0364 277.691 16.0356 277.687 16.0348 277.684C16.034 277.68 16.0331 277.676 16.0323 277.672C16.0315 277.668 16.0307 277.664 16.0299 277.661C16.029 277.657 16.0282 277.653 16.0274 277.649C16.0266 277.645 16.0257 277.642 16.0249 277.638C16.0241 277.634 16.0233 277.63 16.0225 277.626C16.0216 277.622 16.0208 277.619 16.02 277.615C16.0192 277.611 16.0184 277.607 16.0175 277.603C16.0167 277.6 16.0159 277.596 16.0151 277.592C16.0143 277.588 16.0134 277.584 16.0126 277.58C16.0118 277.577 16.011 277.573 16.0102 277.569C16.0093 277.565 16.0085 277.561 16.0077 277.558C16.0069 277.554 16.0061 277.55 16.0052 277.546C16.0044 277.542 16.0036 277.538 16.0028 277.535C16.002 277.531 16.0011 277.527 16.0003 277.523C15.9995 277.519 15.9987 277.516 15.9979 277.512C15.997 277.508 15.9962 277.504 15.9954 277.5C15.9946 277.496 15.9938 277.493 15.9929 277.489C15.9921 277.485 15.9913 277.481 15.9905 277.477C15.9897 277.474 15.9888 277.47 15.988 277.466C15.9872 277.462 15.9864 277.458 15.9856 277.454C15.9847 277.451 15.9839 277.447 15.9831 277.443C15.9823 277.439 15.9815 277.435 15.9806 277.432C15.9798 277.428 15.979 277.424 15.9782 277.42C15.9774 277.416 15.9765 277.412 15.9757 277.409C15.9749 277.405 15.9741 277.401 15.9733 277.397C15.9724 277.393 15.9716 277.39 15.9708 277.386C15.97 277.382 15.9692 277.378 15.9683 277.374C15.9675 277.37 15.9667 277.367 15.9659 277.363C15.965 277.359 15.9642 277.355 15.9634 277.351C15.9626 277.348 15.9618 277.344 15.9609 277.34C15.9601 277.336 15.9593 277.332 15.9585 277.328C15.9577 277.325 15.9568 277.321 15.956 277.317C15.9552 277.313 15.9544 277.309 15.9536 277.305C15.9527 277.302 15.9519 277.298 15.9511 277.294C15.9503 277.29 15.9495 277.286 15.9486 277.283C15.9478 277.279 15.947 277.275 15.9462 277.271C15.9454 277.267 15.9445 277.263 15.9437 277.26C15.9429 277.256 15.9421 277.252 15.9413 277.248C15.9404 277.244 15.9396 277.241 15.9388 277.237C15.938 277.233 15.9372 277.229 15.9363 277.225C15.9355 277.221 15.9347 277.218 15.9339 277.214C15.9331 277.21 15.9322 277.206 15.9314 277.202C15.9306 277.199 15.9298 277.195 15.929 277.191C15.9281 277.187 15.9273 277.183 15.9265 277.179C15.9257 277.176 15.9249 277.172 15.924 277.168C15.9232 277.164 15.9224 277.16 15.9216 277.157C15.9208 277.153 15.9199 277.149 15.9191 277.145C15.9183 277.141 15.9175 277.137 15.9167 277.134C15.9158 277.13 15.915 277.126 15.9142 277.122C15.9134 277.118 15.9126 277.115 15.9117 277.111C15.9109 277.107 15.9101 277.103 15.9093 277.099C15.9085 277.095 15.9076 277.092 15.9068 277.088C15.906 277.084 15.9052 277.08 15.9043 277.076C15.9035 277.073 15.9027 277.069 15.9019 277.065C15.9011 277.061 15.9002 277.057 15.8994 277.053C15.8986 277.05 15.8978 277.046 15.897 277.042C15.8961 277.038 15.8953 277.034 15.8945 277.031C15.8937 277.027 15.8929 277.023 15.892 277.019C15.8912 277.015 15.8904 277.011 15.8896 277.008C15.8888 277.004 15.8879 277 15.8871 276.996C15.8863 276.992 15.8855 276.989 15.8847 276.985C15.8838 276.981 15.883 276.977 15.8822 276.973C15.8814 276.969 15.8806 276.966 15.8797 276.962C15.8789 276.958 15.8781 276.954 15.8773 276.95C15.8765 276.946 15.8756 276.943 15.8748 276.939C15.874 276.935 15.8732 276.931 15.8724 276.927C15.8715 276.924 15.8707 276.92 15.8699 276.916C15.8691 276.912 15.8683 276.908 15.8674 276.904C15.8666 276.901 15.8658 276.897 15.865 276.893C15.8642 276.889 15.8633 276.885 15.8625 276.882C15.8617 276.878 15.8609 276.874 15.8601 276.87C15.8592 276.866 15.8584 276.862 15.8576 276.859C15.8568 276.855 15.856 276.851 15.8551 276.847C15.8543 276.843 15.8535 276.84 15.8527 276.836C15.8519 276.832 15.851 276.828 15.8502 276.824C15.8494 276.82 15.8486 276.817 15.8478 276.813C15.8469 276.809 15.8461 276.805 15.8453 276.801C15.8445 276.798 15.8436 276.794 15.8428 276.79C15.842 276.786 15.8412 276.782 15.8404 276.778C15.8395 276.775 15.8387 276.771 15.8379 276.767C15.8371 276.763 15.8363 276.759 15.8354 276.756C15.8346 276.752 15.8338 276.748 15.833 276.744C15.8322 276.74 15.8313 276.736 15.8305 276.733C15.8297 276.729 15.8289 276.725 15.8281 276.721C15.8272 276.717 15.8264 276.714 15.8256 276.71C15.8248 276.706 15.824 276.702 15.8231 276.698C15.8223 276.694 15.8215 276.691 15.8207 276.687C15.8199 276.683 15.819 276.679 15.8182 276.675C15.8174 276.672 15.8166 276.668 15.8158 276.664C15.8149 276.66 15.8141 276.656 15.8133 276.652C15.8125 276.649 15.8117 276.645 15.8108 276.641C15.81 276.637 15.8092 276.633 15.8084 276.63C15.8076 276.626 15.8067 276.622 15.8059 276.618C15.8051 276.614 15.8043 276.61 15.8035 276.607C15.8026 276.603 15.8018 276.599 15.801 276.595C15.8002 276.591 15.7994 276.587 15.7985 276.584C15.7977 276.58 15.7969 276.576 15.7961 276.572C15.7953 276.568 15.7944 276.565 15.7936 276.561C15.7928 276.557 15.792 276.553 15.7912 276.549C15.7903 276.545 15.7895 276.542 15.7887 276.538C15.7879 276.534 15.7871 276.53 15.7862 276.526C15.7854 276.523 15.7846 276.519 15.7838 276.515C15.7829 276.511 15.7821 276.507 15.7813 276.503C15.7805 276.5 15.7797 276.496 15.7788 276.492C15.778 276.488 15.7772 276.484 15.7764 276.481C15.7756 276.477 15.7747 276.473 15.7739 276.469C15.7731 276.465 15.7723 276.461 15.7715 276.458C15.7706 276.454 15.7698 276.45 15.769 276.446C15.7682 276.442 15.7674 276.439 15.7665 276.435C15.7657 276.431 15.7649 276.427 15.7641 276.423C15.7633 276.419 15.7624 276.416 15.7616 276.412C15.7608 276.408 15.76 276.404 15.7592 276.4C15.7583 276.397 15.7575 276.393 15.7567 276.389C15.7559 276.385 15.7551 276.381 15.7542 276.377C15.7534 276.374 15.7526 276.37 15.7518 276.366C15.751 276.362 15.7501 276.358 15.7493 276.355C15.7485 276.351 15.7477 276.347 15.7469 276.343C15.746 276.339 15.7452 276.335 15.7444 276.332C15.7436 276.328 15.7428 276.324 15.7419 276.32C15.7411 276.316 15.7403 276.313 15.7395 276.309C15.7387 276.305 15.7378 276.301 15.737 276.297C15.7362 276.293 15.7354 276.29 15.7346 276.286C15.7337 276.282 15.7329 276.278 15.7321 276.274C15.7313 276.271 15.7305 276.267 15.7296 276.263C15.7288 276.259 15.728 276.255 15.7272 276.251C15.7264 276.248 15.7255 276.244 15.7247 276.24C15.7239 276.236 15.7231 276.232 15.7222 276.228C15.7214 276.225 15.7206 276.221 15.7198 276.217C15.719 276.213 15.7181 276.209 15.7173 276.206C15.7165 276.202 15.7157 276.198 15.7149 276.194C15.714 276.19 15.7132 276.186 15.7124 276.183C15.7116 276.179 15.7108 276.175 15.7099 276.171C15.7091 276.167 15.7083 276.164 15.7075 276.16C15.7067 276.156 15.7058 276.152 15.705 276.148C15.7042 276.144 15.7034 276.141 15.7026 276.137C15.7017 276.133 15.7009 276.129 15.7001 276.125C15.6993 276.122 15.6985 276.118 15.6976 276.114C15.6968 276.11 15.696 276.106 15.6952 276.102C15.6944 276.099 15.6935 276.095 15.6927 276.091C15.6919 276.087 15.6911 276.083 15.6903 276.08C15.6894 276.076 15.6886 276.072 15.6878 276.068C15.687 276.064 15.6862 276.06 15.6853 276.057C15.6845 276.053 15.6837 276.049 15.6829 276.045C15.6821 276.041 15.6812 276.038 15.6804 276.034C15.6796 276.03 15.6788 276.026 15.678 276.022C15.6771 276.018 15.6763 276.015 15.6755 276.011C15.6747 276.007 15.6739 276.003 15.673 275.999C15.6722 275.996 15.6714 275.992 15.6706 275.988C15.6698 275.984 15.6689 275.98 15.6681 275.976C15.6673 275.973 15.6665 275.969 15.6657 275.965C15.6648 275.961 15.664 275.957 15.6632 275.954C15.6624 275.95 15.6615 275.946 15.6607 275.942C15.6599 275.938 15.6591 275.934 15.6583 275.931C15.6574 275.927 15.6566 275.923 15.6558 275.919C15.655 275.915 15.6542 275.912 15.6533 275.908C15.6525 275.904 15.6517 275.9 15.6509 275.896C15.6501 275.892 15.6492 275.889 15.6484 275.885C15.6476 275.881 15.6468 275.877 15.646 275.873C15.6451 275.869 15.6443 275.866 15.6435 275.862C15.6427 275.858 15.6419 275.854 15.641 275.85C15.6402 275.847 15.6394 275.843 15.6386 275.839C15.6378 275.835 15.6369 275.831 15.6361 275.827C15.6353 275.824 15.6345 275.82 15.6337 275.816C15.6328 275.812 15.632 275.808 15.6312 275.805C15.6304 275.801 15.6296 275.797 15.6287 275.793C15.6279 275.789 15.6271 275.785 15.6263 275.782C15.6255 275.778 15.6246 275.774 15.6238 275.77C15.623 275.766 15.6222 275.763 15.6214 275.759C15.6205 275.755 15.6197 275.751 15.6189 275.747C15.6181 275.743 15.6173 275.74 15.6164 275.736C15.6156 275.732 15.6148 275.728 15.614 275.724C15.6132 275.721 15.6123 275.717 15.6115 275.713C15.6107 275.709 15.6099 275.705 15.6091 275.701C15.6082 275.698 15.6074 275.694 15.6066 275.69C15.6058 275.686 15.605 275.682 15.6041 275.679C15.6033 275.675 15.6025 275.671 15.6017 275.667C15.6008 275.663 15.6 275.659 15.5992 275.656C15.5984 275.652 15.5976 275.648 15.5967 275.644C15.5959 275.64 15.5951 275.637 15.5943 275.633C15.5935 275.629 15.5926 275.625 15.5918 275.621C15.591 275.617 15.5902 275.614 15.5894 275.61C15.5885 275.606 15.5877 275.602 15.5869 275.598C15.5861 275.595 15.5853 275.591 15.5844 275.587C15.5836 275.583 15.5828 275.579 15.582 275.575C15.5812 275.572 15.5803 275.568 15.5795 275.564C15.5787 275.56 15.5779 275.556 15.5771 275.553C15.5762 275.549 15.5754 275.545 15.5746 275.541C15.5738 275.537 15.573 275.533 15.5721 275.53C15.5713 275.526 15.5705 275.522 15.5697 275.518C15.5689 275.514 15.568 275.51 15.5672 275.507C15.5664 275.503 15.5656 275.499 15.5648 275.495C15.5639 275.491 15.5631 275.488 15.5623 275.484C15.5615 275.48 15.5607 275.476 15.5598 275.472C15.559 275.468 15.5582 275.465 15.5574 275.461C15.5566 275.457 15.5557 275.453 15.5549 275.449C15.5541 275.446 15.5533 275.442 15.5525 275.438C15.5516 275.434 15.5508 275.43 15.55 275.426C15.5492 275.423 15.5484 275.419 15.5475 275.415C15.5467 275.411 15.5459 275.407 15.5451 275.404C15.5443 275.4 15.5434 275.396 15.5426 275.392C15.5418 275.388 15.541 275.384 15.5401 275.381C15.5393 275.377 15.5385 275.373 15.5377 275.369C15.5369 275.365 15.536 275.362 15.5352 275.358C15.5344 275.354 15.5336 275.35 15.5328 275.346C15.5319 275.342 15.5311 275.339 15.5303 275.335C15.5295 275.331 15.5287 275.327 15.5278 275.323C15.527 275.32 15.5262 275.316 15.5254 275.312C15.5246 275.308 15.5237 275.304 15.5229 275.3C15.5221 275.297 15.5213 275.293 15.5205 275.289C15.5196 275.285 15.5188 275.281 15.518 275.278C15.5172 275.274 15.5164 275.27 15.5155 275.266C15.5147 275.262 15.5139 275.258 15.5131 275.255C15.5123 275.251 15.5114 275.247 15.5106 275.243C15.5098 275.239 15.509 275.236 15.5082 275.232C15.5073 275.228 15.5065 275.224 15.5057 275.22C15.5049 275.216 15.5041 275.213 15.5032 275.209C15.5024 275.205 15.5016 275.201 15.5008 275.197C15.5 275.194 15.4991 275.19 15.4983 275.186C15.4975 275.182 15.4967 275.178 15.4959 275.174C15.495 275.171 15.4942 275.167 15.4934 275.163C15.4926 275.159 15.4918 275.155 15.4909 275.151C15.4901 275.148 15.4893 275.144 15.4885 275.14C15.4877 275.136 15.4868 275.132 15.486 275.129C15.4852 275.125 15.4844 275.121 15.4836 275.117C15.4827 275.113 15.4819 275.109 15.4811 275.106C15.4803 275.102 15.4794 275.098 15.4786 275.094C15.4778 275.09 15.477 275.087 15.4762 275.083C15.4753 275.079 15.4745 275.075 15.4737 275.071C15.4729 275.067 15.4721 275.064 15.4712 275.06C15.4704 275.056 15.4696 275.052 15.4688 275.048C15.468 275.045 15.4671 275.041 15.4663 275.037C15.4655 275.033 15.4647 275.029 15.4639 275.025C15.463 275.022 15.4622 275.018 15.4614 275.014C15.4606 275.01 15.4598 275.006 15.4589 275.003C15.4581 274.999 15.4573 274.995 15.4565 274.991C15.4557 274.987 15.4548 274.983 15.454 274.98C15.4532 274.976 15.4524 274.972 15.4516 274.968C15.4507 274.964 15.4499 274.961 15.4491 274.957C15.4483 274.953 15.4475 274.949 15.4466 274.945C15.4458 274.941 15.445 274.938 15.4442 274.934C15.4434 274.93 15.4425 274.926 15.4417 274.922C15.4409 274.919 15.4401 274.915 15.4393 274.911C15.4384 274.907 15.4376 274.903 15.4368 274.899C15.436 274.896 15.4352 274.892 15.4343 274.888C15.4335 274.884 15.4327 274.88 15.4319 274.877C15.4311 274.873 15.4302 274.869 15.4294 274.865C15.4286 274.861 15.4278 274.857 15.427 274.854C15.4261 274.85 15.4253 274.846 15.4245 274.842C15.4237 274.838 15.4229 274.835 15.422 274.831C15.4212 274.827 15.4204 274.823 15.4196 274.819C15.4187 274.815 15.4179 274.812 15.4171 274.808C15.4163 274.804 15.4155 274.8 15.4146 274.796C15.4138 274.792 15.413 274.789 15.4122 274.785C15.4114 274.781 15.4105 274.777 15.4097 274.773C15.4089 274.77 15.4081 274.766 15.4073 274.762C15.4064 274.758 15.4056 274.754 15.4048 274.75C15.404 274.747 15.4032 274.743 15.4023 274.739C15.4015 274.735 15.4007 274.731 15.3999 274.728C15.3991 274.724 15.3982 274.72 15.3974 274.716C15.3966 274.712 15.3958 274.708 15.395 274.705C15.3941 274.701 15.3933 274.697 15.3925 274.693C15.3917 274.689 15.3909 274.686 15.39 274.682C15.3892 274.678 15.3884 274.674 15.3876 274.67C15.3868 274.666 15.3859 274.663 15.3851 274.659C15.3843 274.655 15.3835 274.651 15.3827 274.647C15.3818 274.644 15.381 274.64 15.3802 274.636C15.3794 274.632 15.3786 274.628 15.3777 274.624C15.3769 274.621 15.3761 274.617 15.3753 274.613C15.3745 274.609 15.3736 274.605 15.3728 274.602C15.372 274.598 15.3712 274.594 15.3704 274.59C15.3695 274.586 15.3687 274.582 15.3679 274.579C15.3671 274.575 15.3663 274.571 15.3654 274.567C15.3646 274.563 15.3638 274.56 15.363 274.556C15.3622 274.552 15.3613 274.548 15.3605 274.544C15.3597 274.54 15.3589 274.537 15.358 274.533C15.3572 274.529 15.3564 274.525 15.3556 274.521C15.3548 274.518 15.3539 274.514 15.3531 274.51C15.3523 274.506 15.3515 274.502 15.3507 274.498C15.3498 274.495 15.349 274.491 15.3482 274.487C15.3474 274.483 15.3466 274.479 15.3457 274.476L8.50182 275.945L1.65789 277.415C1.65871 277.419 1.65953 277.423 1.66036 277.427C1.66118 277.431 1.662 277.434 1.66282 277.438C1.66364 277.442 1.66446 277.446 1.66528 277.45C1.6661 277.454 1.66692 277.457 1.66774 277.461C1.66856 277.465 1.66938 277.469 1.6702 277.473C1.67102 277.476 1.67184 277.48 1.67266 277.484C1.67348 277.488 1.6743 277.492 1.67512 277.496C1.67594 277.499 1.67676 277.503 1.67758 277.507C1.6784 277.511 1.67922 277.515 1.68004 277.518C1.68086 277.522 1.68168 277.526 1.6825 277.53C1.68332 277.534 1.68414 277.538 1.68496 277.541C1.68578 277.545 1.6866 277.549 1.68742 277.553C1.68824 277.557 1.68906 277.56 1.68988 277.564C1.69071 277.568 1.69153 277.572 1.69235 277.576C1.69317 277.58 1.69399 277.583 1.69481 277.587C1.69563 277.591 1.69645 277.595 1.69727 277.599C1.69809 277.602 1.69891 277.606 1.69973 277.61C1.70055 277.614 1.70137 277.618 1.70219 277.622C1.70301 277.625 1.70383 277.629 1.70465 277.633C1.70547 277.637 1.70629 277.641 1.70711 277.645C1.70793 277.648 1.70875 277.652 1.70957 277.656C1.71039 277.66 1.71121 277.664 1.71203 277.667C1.71285 277.671 1.71367 277.675 1.71449 277.679C1.71531 277.683 1.71613 277.687 1.71695 277.69C1.71777 277.694 1.71859 277.698 1.71941 277.702C1.72023 277.706 1.72106 277.709 1.72188 277.713C1.7227 277.717 1.72352 277.721 1.72434 277.725C1.72516 277.729 1.72598 277.732 1.7268 277.736C1.72762 277.74 1.72844 277.744 1.72926 277.748C1.73008 277.751 1.7309 277.755 1.73172 277.759C1.73254 277.763 1.73336 277.767 1.73418 277.771C1.735 277.774 1.73582 277.778 1.73664 277.782C1.73746 277.786 1.73828 277.79 1.7391 277.793C1.73992 277.797 1.74074 277.801 1.74156 277.805C1.74238 277.809 1.7432 277.813 1.74402 277.816C1.74484 277.82 1.74566 277.824 1.74648 277.828C1.7473 277.832 1.74812 277.835 1.74894 277.839C1.74976 277.843 1.75058 277.847 1.75141 277.851C1.75223 277.855 1.75305 277.858 1.75387 277.862C1.75469 277.866 1.75551 277.87 1.75633 277.874C1.75715 277.877 1.75797 277.881 1.75879 277.885C1.75961 277.889 1.76043 277.893 1.76125 277.897C1.76207 277.9 1.76289 277.904 1.76371 277.908C1.76453 277.912 1.76535 277.916 1.76617 277.919C1.76699 277.923 1.76781 277.927 1.76863 277.931C1.76945 277.935 1.77027 277.939 1.77109 277.942C1.77191 277.946 1.77273 277.95 1.77355 277.954C1.77437 277.958 1.77519 277.961 1.77601 277.965C1.77683 277.969 1.77765 277.973 1.77847 277.977C1.77929 277.981 1.78011 277.984 1.78093 277.988C1.78176 277.992 1.78258 277.996 1.7834 278C1.78422 278.004 1.78504 278.007 1.78586 278.011C1.78668 278.015 1.7875 278.019 1.78832 278.023C1.78914 278.026 1.78996 278.03 1.79078 278.034C1.7916 278.038 1.79242 278.042 1.79324 278.046C1.79406 278.049 1.79488 278.053 1.7957 278.057C1.79652 278.061 1.79734 278.065 1.79816 278.068C1.79898 278.072 1.7998 278.076 1.80062 278.08C1.80144 278.084 1.80226 278.088 1.80308 278.091C1.8039 278.095 1.80472 278.099 1.80554 278.103C1.80636 278.107 1.80718 278.11 1.808 278.114C1.80882 278.118 1.80964 278.122 1.81046 278.126C1.81128 278.13 1.8121 278.133 1.81293 278.137C1.81375 278.141 1.81457 278.145 1.81539 278.149C1.81621 278.152 1.81703 278.156 1.81785 278.16C1.81867 278.164 1.81949 278.168 1.82031 278.172C1.82113 278.175 1.82195 278.179 1.82277 278.183C1.82359 278.187 1.82441 278.191 1.82523 278.194C1.82605 278.198 1.82687 278.202 1.82769 278.206C1.82851 278.21 1.82933 278.214 1.83015 278.217C1.83097 278.221 1.83179 278.225 1.83261 278.229C1.83343 278.233 1.83425 278.236 1.83507 278.24C1.83589 278.244 1.83671 278.248 1.83753 278.252C1.83835 278.256 1.83917 278.259 1.83999 278.263C1.84081 278.267 1.84163 278.271 1.84245 278.275C1.84328 278.278 1.8441 278.282 1.84492 278.286C1.84574 278.29 1.84656 278.294 1.84738 278.298C1.8482 278.301 1.84902 278.305 1.84984 278.309C1.85066 278.313 1.85148 278.317 1.8523 278.32C1.85312 278.324 1.85394 278.328 1.85476 278.332C1.85558 278.336 1.8564 278.34 1.85722 278.343C1.85804 278.347 1.85886 278.351 1.85968 278.355C1.8605 278.359 1.86132 278.363 1.86214 278.366C1.86296 278.37 1.86378 278.374 1.8646 278.378C1.86542 278.382 1.86624 278.385 1.86706 278.389C1.86788 278.393 1.8687 278.397 1.86952 278.401C1.87034 278.405 1.87116 278.408 1.87198 278.412C1.8728 278.416 1.87363 278.42 1.87445 278.424C1.87527 278.427 1.87609 278.431 1.87691 278.435C1.87773 278.439 1.87855 278.443 1.87937 278.447C1.88019 278.45 1.88101 278.454 1.88183 278.458C1.88265 278.462 1.88347 278.466 1.88429 278.469C1.88511 278.473 1.88593 278.477 1.88675 278.481C1.88757 278.485 1.88839 278.489 1.88921 278.492C1.89003 278.496 1.89085 278.5 1.89167 278.504C1.89249 278.508 1.89331 278.511 1.89413 278.515C1.89495 278.519 1.89577 278.523 1.89659 278.527C1.89741 278.531 1.89823 278.534 1.89905 278.538C1.89987 278.542 1.90069 278.546 1.90151 278.55C1.90233 278.553 1.90315 278.557 1.90398 278.561C1.9048 278.565 1.90562 278.569 1.90644 278.573C1.90726 278.576 1.90808 278.58 1.9089 278.584C1.90972 278.588 1.91054 278.592 1.91136 278.595C1.91218 278.599 1.913 278.603 1.91382 278.607C1.91464 278.611 1.91546 278.615 1.91628 278.618C1.9171 278.622 1.91792 278.626 1.91874 278.63C1.91956 278.634 1.92038 278.637 1.9212 278.641C1.92202 278.645 1.92284 278.649 1.92366 278.653C1.92448 278.657 1.9253 278.66 1.92612 278.664C1.92694 278.668 1.92776 278.672 1.92858 278.676C1.9294 278.679 1.93022 278.683 1.93104 278.687C1.93186 278.691 1.93268 278.695 1.9335 278.699C1.93433 278.702 1.93515 278.706 1.93597 278.71C1.93679 278.714 1.93761 278.718 1.93843 278.722C1.93925 278.725 1.94007 278.729 1.94089 278.733C1.94171 278.737 1.94253 278.741 1.94335 278.744C1.94417 278.748 1.94499 278.752 1.94581 278.756C1.94663 278.76 1.94745 278.764 1.94827 278.767C1.94909 278.771 1.94991 278.775 1.95073 278.779C1.95155 278.783 1.95237 278.786 1.95319 278.79C1.95401 278.794 1.95483 278.798 1.95565 278.802C1.95647 278.806 1.95729 278.809 1.95811 278.813C1.95893 278.817 1.95975 278.821 1.96057 278.825C1.96139 278.828 1.96221 278.832 1.96303 278.836C1.96385 278.84 1.96468 278.844 1.9655 278.848C1.96632 278.851 1.96714 278.855 1.96796 278.859C1.96878 278.863 1.9696 278.867 1.97042 278.87C1.97124 278.874 1.97206 278.878 1.97288 278.882C1.9737 278.886 1.97452 278.89 1.97534 278.893C1.97616 278.897 1.97698 278.901 1.9778 278.905C1.97862 278.909 1.97944 278.912 1.98026 278.916C1.98108 278.92 1.9819 278.924 1.98272 278.928C1.98354 278.932 1.98436 278.935 1.98518 278.939C1.986 278.943 1.98682 278.947 1.98764 278.951C1.98846 278.954 1.98928 278.958 1.9901 278.962C1.99092 278.966 1.99174 278.97 1.99256 278.974C1.99338 278.977 1.9942 278.981 1.99503 278.985C1.99585 278.989 1.99667 278.993 1.99749 278.996C1.99831 279 1.99913 279.004 1.99995 279.008C2.00077 279.012 2.00159 279.016 2.00241 279.019C2.00323 279.023 2.00405 279.027 2.00487 279.031C2.00569 279.035 2.00651 279.038 2.00733 279.042C2.00815 279.046 2.00897 279.05 2.00979 279.054C2.01061 279.058 2.01143 279.061 2.01225 279.065C2.01307 279.069 2.01389 279.073 2.01471 279.077C2.01553 279.081 2.01635 279.084 2.01717 279.088C2.01799 279.092 2.01881 279.096 2.01963 279.1C2.02045 279.103 2.02127 279.107 2.02209 279.111C2.02291 279.115 2.02373 279.119 2.02455 279.123C2.02538 279.126 2.0262 279.13 2.02702 279.134C2.02784 279.138 2.02866 279.142 2.02948 279.145C2.0303 279.149 2.03112 279.153 2.03194 279.157C2.03276 279.161 2.03358 279.165 2.0344 279.168C2.03522 279.172 2.03604 279.176 2.03686 279.18C2.03768 279.184 2.0385 279.187 2.03932 279.191C2.04014 279.195 2.04096 279.199 2.04178 279.203C2.0426 279.207 2.04342 279.21 2.04424 279.214C2.04506 279.218 2.04588 279.222 2.0467 279.226C2.04752 279.229 2.04834 279.233 2.04916 279.237C2.04998 279.241 2.0508 279.245 2.05162 279.249C2.05244 279.252 2.05326 279.256 2.05408 279.26C2.0549 279.264 2.05573 279.268 2.05655 279.271C2.05737 279.275 2.05819 279.279 2.05901 279.283C2.05983 279.287 2.06065 279.291 2.06147 279.294C2.06229 279.298 2.06311 279.302 2.06393 279.306C2.06475 279.31 2.06557 279.313 2.06639 279.317C2.06721 279.321 2.06803 279.325 2.06885 279.329C2.06967 279.333 2.07049 279.336 2.07131 279.34C2.07213 279.344 2.07295 279.348 2.07377 279.352C2.07459 279.355 2.07541 279.359 2.07623 279.363C2.07705 279.367 2.07787 279.371 2.07869 279.375C2.07951 279.378 2.08033 279.382 2.08115 279.386C2.08197 279.39 2.08279 279.394 2.08361 279.397C2.08443 279.401 2.08525 279.405 2.08608 279.409C2.0869 279.413 2.08772 279.417 2.08854 279.42C2.08936 279.424 2.09018 279.428 2.091 279.432C2.09182 279.436 2.09264 279.44 2.09346 279.443C2.09428 279.447 2.0951 279.451 2.09592 279.455C2.09674 279.459 2.09756 279.462 2.09838 279.466C2.0992 279.47 2.10002 279.474 2.10084 279.478C2.10166 279.482 2.10248 279.485 2.1033 279.489C2.10412 279.493 2.10494 279.497 2.10576 279.501C2.10658 279.504 2.1074 279.508 2.10822 279.512C2.10904 279.516 2.10986 279.52 2.11068 279.524C2.1115 279.527 2.11232 279.531 2.11314 279.535C2.11396 279.539 2.11478 279.543 2.1156 279.546C2.11643 279.55 2.11725 279.554 2.11807 279.558C2.11889 279.562 2.11971 279.566 2.12053 279.569C2.12135 279.573 2.12217 279.577 2.12299 279.581C2.12381 279.585 2.12463 279.588 2.12545 279.592C2.12627 279.596 2.12709 279.6 2.12791 279.604C2.12873 279.608 2.12955 279.611 2.13037 279.615C2.13119 279.619 2.13201 279.623 2.13283 279.627C2.13365 279.63 2.13447 279.634 2.13529 279.638C2.13611 279.642 2.13693 279.646 2.13775 279.65C2.13857 279.653 2.13939 279.657 2.14021 279.661C2.14103 279.665 2.14185 279.669 2.14267 279.672C2.14349 279.676 2.14431 279.68 2.14513 279.684C2.14595 279.688 2.14678 279.692 2.1476 279.695C2.14842 279.699 2.14924 279.703 2.15006 279.707C2.15088 279.711 2.1517 279.714 2.15252 279.718C2.15334 279.722 2.15416 279.726 2.15498 279.73C2.1558 279.734 2.15662 279.737 2.15744 279.741C2.15826 279.745 2.15908 279.749 2.1599 279.753C2.16072 279.756 2.16154 279.76 2.16236 279.764C2.16318 279.768 2.164 279.772 2.16482 279.776C2.16564 279.779 2.16646 279.783 2.16728 279.787C2.1681 279.791 2.16892 279.795 2.16974 279.799C2.17056 279.802 2.17138 279.806 2.1722 279.81C2.17302 279.814 2.17384 279.818 2.17466 279.821C2.17548 279.825 2.1763 279.829 2.17713 279.833C2.17795 279.837 2.17877 279.841 2.17959 279.844C2.18041 279.848 2.18123 279.852 2.18205 279.856C2.18287 279.86 2.18369 279.863 2.18451 279.867C2.18533 279.871 2.18615 279.875 2.18697 279.879C2.18779 279.883 2.18861 279.886 2.18943 279.89C2.19025 279.894 2.19107 279.898 2.19189 279.902C2.19271 279.905 2.19353 279.909 2.19435 279.913C2.19517 279.917 2.19599 279.921 2.19681 279.925C2.19763 279.928 2.19845 279.932 2.19927 279.936C2.20009 279.94 2.20091 279.944 2.20173 279.947C2.20255 279.951 2.20337 279.955 2.20419 279.959C2.20501 279.963 2.20583 279.967 2.20665 279.97C2.20748 279.974 2.2083 279.978 2.20912 279.982C2.20994 279.986 2.21076 279.989 2.21158 279.993C2.2124 279.997 2.21322 280.001 2.21404 280.005C2.21486 280.009 2.21568 280.012 2.2165 280.016C2.21732 280.02 2.21814 280.024 2.21896 280.028C2.21978 280.031 2.2206 280.035 2.22142 280.039C2.22224 280.043 2.22306 280.047 2.22388 280.051C2.2247 280.054 2.22552 280.058 2.22634 280.062C2.22716 280.066 2.22798 280.07 2.2288 280.073C2.22962 280.077 2.23044 280.081 2.23126 280.085C2.23208 280.089 2.2329 280.093 2.23372 280.096C2.23454 280.1 2.23536 280.104 2.23618 280.108C2.237 280.112 2.23783 280.115 2.23865 280.119C2.23947 280.123 2.24029 280.127 2.24111 280.131C2.24193 280.135 2.24275 280.138 2.24357 280.142C2.24439 280.146 2.24521 280.15 2.24603 280.154C2.24685 280.158 2.24767 280.161 2.24849 280.165C2.24931 280.169 2.25013 280.173 2.25095 280.177C2.25177 280.18 2.25259 280.184 2.25341 280.188C2.25423 280.192 2.25505 280.196 2.25587 280.2C2.25669 280.203 2.25751 280.207 2.25833 280.211C2.25915 280.215 2.25997 280.219 2.26079 280.222C2.26161 280.226 2.26243 280.23 2.26325 280.234C2.26407 280.238 2.26489 280.242 2.26571 280.245C2.26653 280.249 2.26735 280.253 2.26818 280.257C2.269 280.261 2.26982 280.264 2.27064 280.268C2.27146 280.272 2.27228 280.276 2.2731 280.28C2.27392 280.284 2.27474 280.287 2.27556 280.291C2.27638 280.295 2.2772 280.299 2.27802 280.303C2.27884 280.306 2.27966 280.31 2.28048 280.314C2.2813 280.318 2.28212 280.322 2.28294 280.326C2.28376 280.329 2.28458 280.333 2.2854 280.337C2.28622 280.341 2.28704 280.345 2.28786 280.348C2.28868 280.352 2.2895 280.356 2.29032 280.36C2.29114 280.364 2.29196 280.368 2.29278 280.371C2.2936 280.375 2.29442 280.379 2.29524 280.383C2.29606 280.387 2.29688 280.39 2.29771 280.394C2.29853 280.398 2.29935 280.402 2.30017 280.406C2.30099 280.41 2.30181 280.413 2.30263 280.417C2.30345 280.421 2.30427 280.425 2.30509 280.429C2.30591 280.432 2.30673 280.436 2.30755 280.44C2.30837 280.444 2.30919 280.448 2.31001 280.452C2.31083 280.455 2.31165 280.459 2.31247 280.463C2.31329 280.467 2.31411 280.471 2.31493 280.474C2.31575 280.478 2.31657 280.482 2.31739 280.486C2.31821 280.49 2.31903 280.494 2.31985 280.497C2.32067 280.501 2.32149 280.505 2.32231 280.509C2.32313 280.513 2.32395 280.517 2.32477 280.52C2.32559 280.524 2.32641 280.528 2.32723 280.532C2.32806 280.536 2.32888 280.539 2.3297 280.543C2.33052 280.547 2.33134 280.551 2.33216 280.555C2.33298 280.559 2.3338 280.562 2.33462 280.566C2.33544 280.57 2.33626 280.574 2.33708 280.578C2.3379 280.581 2.33872 280.585 2.33954 280.589C2.34036 280.593 2.34118 280.597 2.342 280.601C2.34282 280.604 2.34364 280.608 2.34446 280.612C2.34528 280.616 2.3461 280.62 2.34692 280.623C2.34774 280.627 2.34856 280.631 2.34938 280.635C2.3502 280.639 2.35102 280.643 2.35184 280.646C2.35266 280.65 2.35348 280.654 2.3543 280.658C2.35512 280.662 2.35594 280.665 2.35676 280.669C2.35758 280.673 2.35841 280.677 2.35923 280.681C2.36005 280.685 2.36087 280.688 2.36169 280.692C2.36251 280.696 2.36333 280.7 2.36415 280.704C2.36497 280.707 2.36579 280.711 2.36661 280.715C2.36743 280.719 2.36825 280.723 2.36907 280.727C2.36989 280.73 2.37071 280.734 2.37153 280.738C2.37235 280.742 2.37317 280.746 2.37399 280.749C2.37481 280.753 2.37563 280.757 2.37645 280.761C2.37727 280.765 2.37809 280.769 2.37891 280.772C2.37973 280.776 2.38055 280.78 2.38137 280.784C2.38219 280.788 2.38301 280.791 2.38383 280.795C2.38465 280.799 2.38547 280.803 2.38629 280.807C2.38711 280.811 2.38793 280.814 2.38876 280.818C2.38958 280.822 2.3904 280.826 2.39122 280.83C2.39204 280.833 2.39286 280.837 2.39368 280.841C2.3945 280.845 2.39532 280.849 2.39614 280.853C2.39696 280.856 2.39778 280.86 2.3986 280.864C2.39942 280.868 2.40024 280.872 2.40106 280.876C2.40188 280.879 2.4027 280.883 2.40352 280.887C2.40434 280.891 2.40516 280.895 2.40598 280.898C2.4068 280.902 2.40762 280.906 2.40844 280.91C2.40926 280.914 2.41008 280.918 2.4109 280.921C2.41172 280.925 2.41254 280.929 2.41336 280.933C2.41418 280.937 2.415 280.94 2.41582 280.944C2.41664 280.948 2.41746 280.952 2.41828 280.956C2.41911 280.96 2.41993 280.963 2.42075 280.967C2.42157 280.971 2.42239 280.975 2.42321 280.979C2.42403 280.982 2.42485 280.986 2.42567 280.99C2.42649 280.994 2.42731 280.998 2.42813 281.002C2.42895 281.005 2.42977 281.009 2.43059 281.013C2.43141 281.017 2.43223 281.021 2.43305 281.024C2.43387 281.028 2.43469 281.032 2.43551 281.036C2.43633 281.04 2.43715 281.044 2.43797 281.047C2.43879 281.051 2.43961 281.055 2.44043 281.059C2.44125 281.063 2.44207 281.066 2.44289 281.07C2.44371 281.074 2.44453 281.078 2.44535 281.082C2.44617 281.086 2.44699 281.089 2.44781 281.093C2.44863 281.097 2.44946 281.101 2.45028 281.105C2.4511 281.108 2.45192 281.112 2.45274 281.116C2.45356 281.12 2.45438 281.124 2.4552 281.128C2.45602 281.131 2.45684 281.135 2.45766 281.139C2.45848 281.143 2.4593 281.147 2.46012 281.15C2.46094 281.154 2.46176 281.158 2.46258 281.162C2.4634 281.166 2.46422 281.17 2.46504 281.173C2.46586 281.177 2.46668 281.181 2.4675 281.185C2.46832 281.189 2.46914 281.192 2.46996 281.196C2.47078 281.2 2.4716 281.204 2.47242 281.208C2.47324 281.212 2.47406 281.215 2.47488 281.219C2.4757 281.223 2.47652 281.227 2.47734 281.231C2.47816 281.235 2.47898 281.238 2.47981 281.242C2.48063 281.246 2.48145 281.25 2.48227 281.254C2.48309 281.257 2.48391 281.261 2.48473 281.265C2.48555 281.269 2.48637 281.273 2.48719 281.277C2.48801 281.28 2.48883 281.284 2.48965 281.288C2.49047 281.292 2.49129 281.296 2.49211 281.299C2.49293 281.303 2.49375 281.307 2.49457 281.311C2.49539 281.315 2.49621 281.319 2.49703 281.322C2.49785 281.326 2.49867 281.33 2.49949 281.334C2.50031 281.338 2.50113 281.341 2.50195 281.345C2.50277 281.349 2.50359 281.353 2.50441 281.357C2.50523 281.361 2.50605 281.364 2.50687 281.368C2.50769 281.372 2.50851 281.376 2.50933 281.38C2.51016 281.383 2.51098 281.387 2.5118 281.391C2.51262 281.395 2.51344 281.399 2.51426 281.403C2.51508 281.406 2.5159 281.41 2.51672 281.414C2.51754 281.418 2.51836 281.422 2.51918 281.425C2.52 281.429 2.52082 281.433 2.52164 281.437C2.52246 281.441 2.52328 281.445 2.5241 281.448C2.52492 281.452 2.52574 281.456 2.52656 281.46C2.52738 281.464 2.5282 281.467 2.52902 281.471C2.52984 281.475 2.53066 281.479 2.53148 281.483C2.5323 281.487 2.53312 281.49 2.53394 281.494C2.53476 281.498 2.53558 281.502 2.5364 281.506C2.53722 281.509 2.53804 281.513 2.53886 281.517C2.53968 281.521 2.54051 281.525 2.54133 281.529C2.54215 281.532 2.54297 281.536 2.54379 281.54C2.54461 281.544 2.54543 281.548 2.54625 281.551C2.54707 281.555 2.54789 281.559 2.54871 281.563C2.54953 281.567 2.55035 281.571 2.55117 281.574C2.55199 281.578 2.55281 281.582 2.55363 281.586C2.55445 281.59 2.55527 281.594 2.55609 281.597C2.55691 281.601 2.55773 281.605 2.55855 281.609C2.55937 281.613 2.56019 281.616 2.56101 281.62C2.56183 281.624 2.56265 281.628 2.56347 281.632C2.56429 281.636 2.56511 281.639 2.56593 281.643C2.56675 281.647 2.56757 281.651 2.56839 281.655C2.56921 281.658 2.57003 281.662 2.57086 281.666C2.57168 281.67 2.5725 281.674 2.57332 281.678C2.57414 281.681 2.57496 281.685 2.57578 281.689C2.5766 281.693 2.57742 281.697 2.57824 281.7C2.57906 281.704 2.57988 281.708 2.5807 281.712C2.58152 281.716 2.58234 281.72 2.58316 281.723C2.58398 281.727 2.5848 281.731 2.58562 281.735C2.58644 281.739 2.58726 281.742 2.58808 281.746C2.5889 281.75 2.58972 281.754 2.59054 281.758C2.59136 281.762 2.59218 281.765 2.593 281.769C2.59382 281.773 2.59464 281.777 2.59546 281.781C2.59628 281.784 2.5971 281.788 2.59792 281.792C2.59874 281.796 2.59956 281.8 2.60038 281.804C2.60121 281.807 2.60203 281.811 2.60285 281.815C2.60367 281.819 2.60449 281.823 2.60531 281.826C2.60613 281.83 2.60695 281.834 2.60777 281.838C2.60859 281.842 2.60941 281.846 2.61023 281.849C2.61105 281.853 2.61187 281.857 2.61269 281.861C2.61351 281.865 2.61433 281.868 2.61515 281.872C2.61597 281.876 2.61679 281.88 2.61761 281.884C2.61843 281.888 2.61925 281.891 2.62007 281.895C2.62089 281.899 2.62171 281.903 2.62253 281.907C2.62335 281.91 2.62417 281.914 2.62499 281.918C2.62581 281.922 2.62663 281.926 2.62745 281.93C2.62827 281.933 2.62909 281.937 2.62991 281.941C2.63073 281.945 2.63156 281.949 2.63238 281.953C2.6332 281.956 2.63402 281.96 2.63484 281.964C2.63566 281.968 2.63648 281.972 2.6373 281.975C2.63812 281.979 2.63894 281.983 2.63976 281.987C2.64058 281.991 2.6414 281.995 2.64222 281.998C2.64304 282.002 2.64386 282.006 2.64468 282.01C2.6455 282.014 2.64632 282.017 2.64714 282.021C2.64796 282.025 2.64878 282.029 2.6496 282.033C2.65042 282.037 2.65124 282.04 2.65206 282.044C2.65288 282.048 2.6537 282.052 2.65452 282.056C2.65534 282.059 2.65616 282.063 2.65698 282.067C2.6578 282.071 2.65862 282.075 2.65944 282.079C2.66026 282.082 2.66108 282.086 2.66191 282.09C2.66273 282.094 2.66355 282.098 2.66437 282.101C2.66519 282.105 2.66601 282.109 2.66683 282.113C2.66765 282.117 2.66847 282.121 2.66929 282.124C2.67011 282.128 2.67093 282.132 2.67175 282.136C2.67257 282.14 2.67339 282.143 2.67421 282.147C2.67503 282.151 2.67585 282.155 2.67667 282.159C2.67749 282.163 2.67831 282.166 2.67913 282.17C2.67995 282.174 2.68077 282.178 2.68159 282.182C2.68241 282.185 2.68323 282.189 2.68405 282.193C2.68487 282.197 2.68569 282.201 2.68651 282.205C2.68733 282.208 2.68815 282.212 2.68897 282.216C2.68979 282.22 2.69061 282.224 2.69143 282.227C2.69226 282.231 2.69308 282.235 2.6939 282.239C2.69472 282.243 2.69554 282.247 2.69636 282.25C2.69718 282.254 2.698 282.258 2.69882 282.262C2.69964 282.266 2.70046 282.269 2.70128 282.273C2.7021 282.277 2.70292 282.281 2.70374 282.285C2.70456 282.289 2.70538 282.292 2.7062 282.296C2.70702 282.3 2.70784 282.304 2.70866 282.308C2.70948 282.312 2.7103 282.315 2.71112 282.319C2.71194 282.323 2.71276 282.327 2.71358 282.331C2.7144 282.334 2.71522 282.338 2.71604 282.342C2.71686 282.346 2.71768 282.35 2.7185 282.354C2.71932 282.357 2.72014 282.361 2.72096 282.365C2.72178 282.369 2.72261 282.373 2.72343 282.376C2.72425 282.38 2.72507 282.384 2.72589 282.388C2.72671 282.392 2.72753 282.396 2.72835 282.399C2.72917 282.403 2.72999 282.407 2.73081 282.411C2.73163 282.415 2.73245 282.418 2.73327 282.422C2.73409 282.426 2.73491 282.43 2.73573 282.434C2.73655 282.438 2.73737 282.441 2.73819 282.445C2.73901 282.449 2.73983 282.453 2.74065 282.457C2.74147 282.46 2.74229 282.464 2.74311 282.468C2.74393 282.472 2.74475 282.476 2.74557 282.48C2.74639 282.483 2.74721 282.487 2.74803 282.491C2.74885 282.495 2.74967 282.499 2.75049 282.502C2.75131 282.506 2.75213 282.51 2.75296 282.514C2.75378 282.518 2.7546 282.522 2.75542 282.525C2.75624 282.529 2.75706 282.533 2.75788 282.537C2.7587 282.541 2.75952 282.544 2.76034 282.548C2.76116 282.552 2.76198 282.556 2.7628 282.56C2.76362 282.564 2.76444 282.567 2.76526 282.571C2.76608 282.575 2.7669 282.579 2.76772 282.583C2.76854 282.586 2.76936 282.59 2.77018 282.594C2.771 282.598 2.77182 282.602 2.77264 282.606C2.77346 282.609 2.77428 282.613 2.7751 282.617C2.77592 282.621 2.77674 282.625 2.77756 282.628C2.77838 282.632 2.7792 282.636 2.78002 282.64C2.78084 282.644 2.78166 282.648 2.78248 282.651C2.78331 282.655 2.78413 282.659 2.78495 282.663C2.78577 282.667 2.78659 282.671 2.78741 282.674C2.78823 282.678 2.78905 282.682 2.78987 282.686C2.79069 282.69 2.79151 282.693 2.79233 282.697C2.79315 282.701 2.79397 282.705 2.79479 282.709C2.79561 282.713 2.79643 282.716 2.79725 282.72C2.79807 282.724 2.79889 282.728 2.79971 282.732C2.80053 282.735 2.80135 282.739 2.80217 282.743C2.80299 282.747 2.80381 282.751 2.80463 282.755C2.80545 282.758 2.80627 282.762 2.80709 282.766C2.80791 282.77 2.80873 282.774 2.80955 282.777C2.81037 282.781 2.81119 282.785 2.81201 282.789C2.81283 282.793 2.81366 282.797 2.81448 282.8C2.8153 282.804 2.81612 282.808 2.81694 282.812C2.81776 282.816 2.81858 282.819 2.8194 282.823C2.82022 282.827 2.82104 282.831 2.82186 282.835C2.82268 282.839 2.8235 282.842 2.82432 282.846C2.82514 282.85 2.82596 282.854 2.82678 282.858C2.8276 282.861 2.82842 282.865 2.82924 282.869C2.83006 282.873 2.83088 282.877 2.8317 282.881C2.83252 282.884 2.83334 282.888 2.83416 282.892C2.83498 282.896 2.8358 282.9 2.83662 282.903C2.83744 282.907 2.83826 282.911 2.83908 282.915C2.8399 282.919 2.84072 282.923 2.84154 282.926C2.84236 282.93 2.84319 282.934 2.84401 282.938C2.84483 282.942 2.84565 282.945 2.84647 282.949C2.84729 282.953 2.84811 282.957 2.84893 282.961C2.84975 282.965 2.85057 282.968 2.85139 282.972C2.85221 282.976 2.85303 282.98 2.85385 282.984C2.85467 282.988 2.85549 282.991 2.85631 282.995C2.85713 282.999 2.85795 283.003 2.85877 283.007C2.85959 283.01 2.86041 283.014 2.86123 283.018C2.86205 283.022 2.86287 283.026 2.86369 283.03C2.86451 283.033 2.86533 283.037 2.86615 283.041C2.86697 283.045 2.86779 283.049 2.86861 283.052C2.86943 283.056 2.87025 283.06 2.87107 283.064C2.87189 283.068 2.87271 283.072 2.87354 283.075C2.87436 283.079 2.87518 283.083 2.876 283.087C2.87682 283.091 2.87764 283.094 2.87846 283.098C2.87928 283.102 2.8801 283.106 2.88092 283.11C2.88174 283.114 2.88256 283.117 2.88338 283.121C2.8842 283.125 2.88502 283.129 2.88584 283.133C2.88666 283.136 2.88748 283.14 2.8883 283.144C2.88912 283.148 2.88994 283.152 2.89076 283.156C2.89158 283.159 2.8924 283.163 2.89322 283.167C2.89404 283.171 2.89486 283.175 2.89568 283.178C2.8965 283.182 2.89732 283.186 2.89814 283.19C2.89896 283.194 2.89978 283.198 2.9006 283.201C2.90142 283.205 2.90224 283.209 2.90306 283.213C2.90389 283.217 2.90471 283.22 2.90553 283.224C2.90635 283.228 2.90717 283.232 2.90799 283.236C2.90881 283.24 2.90963 283.243 2.91045 283.247C2.91127 283.251 2.91209 283.255 2.91291 283.259C2.91373 283.262 2.91455 283.266 2.91537 283.27C2.91619 283.274 2.91701 283.278 2.91783 283.282L9.76176 281.812ZM8.50182 275.945L15.3457 274.476C13.4058 265.443 13.5544 256.244 15.8484 246.796L9.04607 245.144L2.24371 243.493C-0.527748 254.907 -0.741965 266.242 1.65789 277.415L8.50182 275.945ZM9.04607 245.144L15.8484 246.796C18.1908 237.149 21.7771 229.894 26.3296 224.658L21.0473 220.065L15.765 215.472C9.38133 222.813 4.96679 232.278 2.24371 243.493L9.04607 245.144ZM21.0473 220.065L22.5172 226.909L23.006 226.804L21.5361 219.96L20.0662 213.116L19.5773 213.221L21.0473 220.065ZM21.5361 219.96L23.006 226.804C21.7188 227.08 20.6639 226.885 20.0496 226.698C19.4495 226.515 19.0779 226.285 18.9673 226.214C18.7725 226.088 18.9027 226.137 19.393 226.661L24.5054 221.879L29.6177 217.098C28.7803 216.202 27.7518 215.222 26.5673 214.456C25.6156 213.841 23.1788 212.448 20.0662 213.116L21.5361 219.96ZM24.5054 221.879L20.7054 227.758C20.7713 227.801 20.543 227.668 20.2226 227.31C19.903 226.954 19.2831 226.137 19.0066 224.85C18.702 223.432 18.9482 222.058 19.488 220.977C19.9637 220.025 20.5537 219.514 20.7599 219.348L25.1353 224.812L29.5108 230.277C31.0254 229.064 33.6074 226.161 32.6945 221.91C31.973 218.551 29.4228 216.723 28.3054 216.001L24.5054 221.879ZM25.1353 224.812L19.2565 221.013C16.1742 225.781 14.1757 230.977 13.302 236.546L20.2174 237.631L27.1328 238.716C27.6982 235.112 28.9783 231.762 31.0141 228.612L25.1353 224.812ZM20.2174 237.631L13.2599 236.861C12.7052 241.875 13.0268 247.011 14.1479 252.231L20.9919 250.761L27.8358 249.291C26.9971 245.386 26.8024 241.768 27.175 238.401L20.2174 237.631ZM20.9919 250.761L14.1479 252.231C15.6343 259.152 18.2353 265.935 21.8869 272.571L28.0198 269.196L34.1527 265.822C31.0936 260.262 29.0093 254.755 27.8358 249.291L20.9919 250.761ZM28.0198 269.196L22.106 272.942C25.9941 279.081 30.3068 284.368 35.0803 288.718L39.7951 283.544L44.5098 278.37C40.8055 274.994 37.2679 270.716 33.9336 265.451L28.0198 269.196ZM39.7951 283.544L35.0803 288.718C46.6653 299.274 60.9779 306.483 77.7843 310.484L79.4056 303.675L81.0269 296.865C66.2141 293.338 54.1197 287.126 44.5098 278.37L39.7951 283.544ZM79.4056 303.675L77.9692 310.526C94.8546 314.066 110.894 314.299 125.994 311.056L124.524 304.212L123.054 297.368C110.128 300.145 96.0875 300.02 80.8419 296.824L79.4056 303.675ZM124.524 304.212L125.994 311.056C146.641 306.622 162.174 296.823 171.378 281.081L165.335 277.548L159.292 274.015C152.538 285.566 140.865 293.543 123.054 297.368L124.524 304.212ZM165.335 277.548L171.323 281.173C180.612 265.832 183.201 248.823 179.282 230.572L172.438 232.042L165.594 233.512C168.814 248.503 166.668 261.831 159.347 273.922L165.335 277.548ZM172.438 232.042L179.282 230.572C176.917 219.564 172.434 209.084 165.914 199.151L160.062 202.993L154.21 206.834C159.851 215.427 163.618 224.313 165.594 233.512L172.438 232.042ZM160.062 202.993L165.963 199.229C157.436 185.86 147.149 173.269 135.129 161.452L130.222 166.444L125.314 171.436C136.633 182.563 146.239 194.339 154.16 206.757L160.062 202.993ZM130.222 166.444L135.267 161.592C123.93 149.804 113.32 138.21 103.436 126.812L98.1472 131.398L92.8588 135.984C102.913 147.578 113.686 159.349 125.176 171.296L130.222 166.444ZM98.1472 131.398L103.514 126.904C95.4582 117.285 90.3658 107.073 88.0383 96.2368L81.1944 97.7067L74.3505 99.1766C77.2027 112.457 83.4122 124.706 92.7806 135.892L98.1472 131.398ZM81.1944 97.7067L88.0383 96.2368C85.63 85.0236 86.7106 73.3695 91.5621 61.0962L85.0522 58.5229L78.5424 55.9497C72.7903 70.5012 71.2991 84.9695 74.3505 99.1766L81.1944 97.7067ZM85.0522 58.5229L91.4093 61.4534C96.4874 50.4374 104.233 40.7813 114.814 32.4857L110.495 26.9768L106.176 21.468C93.9972 31.0163 84.7806 42.391 78.6951 55.5925L85.0522 58.5229ZM110.495 26.9768L114.871 32.4409C125.737 23.7395 137.257 18.1606 149.462 15.5392L147.992 8.69523L146.522 1.85131C132.004 4.96955 118.526 11.5784 106.12 21.5128L110.495 26.9768ZM147.992 8.69523L149.462 15.5392C157.752 13.7587 166.035 13.5242 174.355 14.8295L175.44 7.91404L176.525 0.998617C166.498 -0.57434 156.483 -0.288055 146.522 1.85131L147.992 8.69523ZM175.44 7.91404L174.355 14.8295C182.334 16.0811 190.144 19.3413 197.818 24.8116L201.881 19.1114L205.944 13.4112C196.711 6.82992 186.893 2.62515 176.525 0.998617L175.44 7.91404ZM201.881 19.1114L197.002 24.1308C198.342 25.4338 199.611 27.5897 200.385 31.195L207.229 29.725L214.073 28.2551C212.887 22.7351 210.591 17.8153 206.76 14.092L201.881 19.1114ZM207.229 29.725L200.385 31.195C201.614 36.916 201.189 40.5922 200.174 42.8828L206.573 45.7194L212.973 48.556C215.632 42.5569 215.644 35.5701 214.073 28.2551L207.229 29.725ZM206.573 45.7194L200.109 43.0323C197.936 48.2598 195.779 54.7981 193.621 62.5667L200.366 64.4403L207.111 66.3138C209.183 58.8546 211.164 52.9124 213.037 48.4065L206.573 45.7194ZM200.366 64.4403L193.621 62.5667C191.538 70.067 190.184 76.0356 190.06 79.748L197.056 79.9819L204.052 80.2158C204.111 78.4337 204.964 74.0412 207.111 66.3138L200.366 64.4403ZM197.056 79.9819L192.68 74.5178C192.69 74.5098 192.615 74.5694 192.402 74.7203C192.204 74.8605 191.938 75.0436 191.596 75.2741C190.91 75.7353 189.985 76.3399 188.808 77.0952L192.587 82.9872L196.367 88.8793C198.658 87.4097 200.5 86.1917 201.431 85.4459L197.056 79.9819ZM192.587 82.9872L189.294 76.8105C188.596 77.1822 188.611 77.0477 189.15 76.9932C189.471 76.9607 190.062 76.9494 190.799 77.1633C191.578 77.3891 192.335 77.8148 192.962 78.424L188.082 83.4433L183.203 88.4627C185.484 90.6801 188.323 91.1485 190.56 90.922C192.6 90.7154 194.436 89.9341 195.881 89.164L192.587 82.9872ZM188.082 83.4433L194.861 85.1893C195.743 81.7661 196.562 76.2047 197.373 68.8814L190.415 68.1117L183.457 67.3419C182.645 74.6865 181.909 79.3462 181.304 81.6974L188.082 83.4433ZM190.415 68.1117L197.373 68.8814C198.243 61.013 198.079 53.7903 196.691 47.3304L189.847 48.8004L183.003 50.2703C183.996 54.8911 184.21 60.5426 183.457 67.3419L190.415 68.1117ZM189.847 48.8004L196.691 47.3304C195.877 43.5419 194.827 39.4905 193.549 35.1824L186.838 37.1729L180.127 39.1634C181.321 43.1888 182.277 46.889 183.003 50.2703L189.847 48.8004ZM186.838 37.1729L193.682 35.703C192.164 28.6359 187.491 23.5868 180.971 20.4845L177.963 26.8054L174.956 33.1263C178.309 34.7221 179.552 36.5847 179.994 38.6428L186.838 37.1729ZM177.963 26.8054L181.505 20.7671C175.974 17.5239 169.456 15.2826 162.115 13.894L160.814 20.772L159.513 27.6501C165.677 28.816 170.591 30.597 174.422 32.8437L177.963 26.8054ZM160.814 20.772L162.115 13.894C154.21 12.3986 145.46 12.819 136.017 14.8471L137.487 21.691L138.957 28.5349C147.113 26.7832 153.914 26.5909 159.513 27.6501L160.814 20.772ZM137.487 21.691L136.017 14.8471C116.724 18.9908 102.182 28.0359 93.725 42.6472L99.7833 46.1538L105.842 49.6604C111.807 39.3542 122.401 32.0908 138.957 28.5349L137.487 21.691ZM99.7833 46.1538L93.725 42.6472C85.7706 56.3897 83.0375 70.5719 86.1123 84.8882L92.9562 83.4183L99.8001 81.9483C97.5552 71.4962 99.3735 60.8354 105.842 49.6604L99.7833 46.1538ZM92.9562 83.4183L86.1123 84.8882C87.6543 92.0676 90.6938 98.834 95.1196 105.165L100.857 101.155L106.594 97.1441C103.146 92.211 100.918 87.1532 99.8001 81.9483L92.9562 83.4183ZM100.857 101.155L95.1047 105.144C102.95 116.456 112.682 126.579 124.245 135.524L128.528 129.987L132.811 124.45C122.296 116.317 113.581 107.218 106.609 97.1655L100.857 101.155ZM128.528 129.987L124.245 135.524C135.194 143.993 146.053 152.822 156.823 162.011L161.367 156.686L165.911 151.361C154.974 142.03 143.941 133.059 132.811 124.45L128.528 129.987ZM161.367 156.686L157.001 162.158C167.54 170.568 176.396 180.279 183.598 191.303L189.458 187.474L195.319 183.645C187.284 171.349 177.413 160.535 165.733 151.215L161.367 156.686ZM189.458 187.474L183.598 191.303C188.223 198.38 191.364 205.87 193.068 213.803L199.912 212.333L206.756 210.863C204.68 201.197 200.852 192.115 195.319 183.645L189.458 187.474ZM199.912 212.333L193.068 213.803C195.532 225.276 194.823 236.208 191.007 246.761L197.589 249.141L204.172 251.522C208.912 238.417 209.751 224.811 206.756 210.863L199.912 212.333ZM197.589 249.141L190.954 246.911C187.333 257.685 181.336 267.815 172.834 277.307L178.049 281.977L183.263 286.647C192.911 275.876 199.941 264.116 204.224 251.372L197.589 249.141ZM178.049 281.977L172.861 277.277C164.511 286.495 154.9 294.376 144.003 300.926L147.609 306.925L151.215 312.925C163.266 305.682 173.948 296.93 183.237 286.676L178.049 281.977ZM147.609 306.925L144.003 300.926C133.151 307.448 121.94 311.927 110.351 314.416L111.821 321.26L113.291 328.104C126.471 325.273 139.118 320.196 151.215 312.925L147.609 306.925Z" fill="#F7D570" mask="url(#path-1-outside-1_54_2)"/>
</svg>
