<svg width="242" height="231" viewBox="0 0 242 231" fill="none" xmlns="http://www.w3.org/2000/svg">
<path d="M202.831 0.0498333C212.84 0.0493845 222.422 0.193727 231.998 0.00409864C240.135 -0.157028 243.346 5.94056 239.411 13.1832C230.578 29.4395 221.159 45.3745 211.882 61.3836C208.072 67.9568 201.14 67.9373 197.347 61.3746C188.09 45.3571 178.882 29.3108 169.741 13.2258C165.598 5.93406 169.111 0.0770157 177.524 0.051641C185.816 0.0266364 194.109 0.0485007 202.831 0.0498333Z" fill="#0A2D2D"/>
<path d="M59.4523 196.01C63.6597 203.401 67.8956 210.418 71.7489 217.641C75.4442 224.569 72.0395 229.917 64.1814 229.925C46.0087 229.943 27.8359 229.949 9.6631 229.921C0.805273 229.908 -2.44055 224.266 1.93498 216.618C10.9257 200.905 19.9402 185.205 28.8571 169.449C30.6931 166.205 32.9357 163.905 36.8877 164.004C40.8493 164.103 42.8804 166.639 44.6538 169.856C49.4386 178.536 54.4139 187.11 59.4523 196.01Z" fill="#81D595"/>
<path d="M59.5846 1.88051C67.6823 -0.136886 75.7391 -0.0379546 84.0358 0.0250377C85.7287 0.0248823 87.422 0.0238893 89.1149 0.0211314C92.6293 0.0197598 96.1435 0.0323397 99.6578 0.0553111C104.156 0.0839124 108.653 0.0806677 113.151 0.0680064C116.632 0.0610522 120.114 0.0682702 123.595 0.0807018C125.255 0.0852025 126.914 0.0856054 128.573 0.0816783C130.884 0.0787629 133.195 0.0960139 135.506 0.117811C136.817 0.123214 138.129 0.127869 139.48 0.133436C144.659 0.719878 146.893 2.30011 150.187 6.28187C152.145 9.97807 152.388 12.1947 152.357 16.3532C152.358 17.0074 152.358 17.6616 152.359 18.3356C152.356 20.4786 152.325 22.6206 152.294 24.7633C152.286 26.2569 152.281 27.7512 152.277 29.2448C152.262 33.1607 152.223 37.0761 152.178 40.9918C152.137 44.9936 152.118 48.9958 152.098 52.9977C152.058 60.3321 151.994 67.6665 151.918 75.0006H66.0006V77.0006H172.909C181.559 78.0599 189.779 80.5617 197.903 84.5211L200.63 85.7555C216.736 93.6462 229.448 108.975 235.903 125.521C242.842 146.545 242.545 166.357 233.36 186.697C222.75 207.263 205.804 220.453 183.903 227.521C175.164 229.925 166.372 229.866 157.387 229.892C155.802 229.901 154.217 229.91 152.631 229.92C149.327 229.936 146.021 229.944 142.716 229.947C138.491 229.952 134.266 229.99 130.041 230.036C126.774 230.066 123.508 230.073 120.241 230.074C118.683 230.078 117.124 230.09 115.566 230.111C113.388 230.138 111.213 230.133 109.035 230.121C107.799 230.126 106.564 230.131 105.291 230.136C100.259 229.223 97.5482 226.818 94.5426 222.622C93.6439 219.669 93.6648 217.002 93.6764 213.917C93.6761 213.263 93.6757 212.609 93.6754 211.935C93.6768 209.782 93.692 207.628 93.7077 205.474C93.7114 203.978 93.7144 202.481 93.7164 200.985C93.7241 197.053 93.7441 193.12 93.7662 189.188C93.7867 185.173 93.7952 181.157 93.8053 177.142C93.8254 169.762 93.8576 162.381 93.8961 155.001H186.001V153.001H68.3746C59.5815 151.999 51.1667 149.71 42.903 145.521L39.8873 143.994C21.5679 134.012 9.83419 118.029 2.87562 98.6618C-2.61468 79.5337 -0.102265 57.7683 9.20765 40.3649C20.8582 20.8221 37.6191 7.8731 59.5846 1.88051Z" fill="url(#paint0_linear_53_56)"/>
<defs>
<linearGradient id="paint0_linear_53_56" x1="103.5" y1="239.501" x2="159" y2="9.08265e-05" gradientUnits="userSpaceOnUse">
<stop stop-color="#81D595"/>
<stop offset="0.5" stop-color="#02B5D1"/>
<stop offset="1" stop-color="#092D2D"/>
</linearGradient>
</defs>
</svg>
